<?xml version="1.0" standalone="no"?>
<!DOCTYPE svg PUBLIC "-//W3C//DTD SVG 20010904//EN"
 "http://www.w3.org/TR/2001/REC-SVG-20010904/DTD/svg10.dtd">
<svg version="1.0" xmlns="http://www.w3.org/2000/svg"
 width="1173.000000pt" height="1173.000000pt" viewBox="0 0 1173.000000 1173.000000"
 preserveAspectRatio="xMidYMid meet">
<metadata>
Created by potrace 1.11, written by Peter Selinger 2001-2013
</metadata>
<g transform="translate(0.000000,1173.000000) scale(0.100000,-0.100000)"
fill="#000000" stroke="none">
<path d="M5800 11687 c-224 -170 -636 -492 -650 -507 -3 -3 -27 -24 -55 -45
-27 -22 -95 -78 -150 -123 -55 -46 -109 -91 -120 -100 -11 -10 -65 -55 -120
-102 -55 -47 -111 -95 -125 -106 -62 -53 -250 -217 -290 -254 -15 -14 -41 -37
-57 -51 -148 -130 -357 -323 -572 -527 -140 -134 -481 -474 -627 -628 -176
-184 -193 -202 -304 -325 -41 -45 -79 -87 -85 -93 -38 -41 -228 -262 -311
-361 -570 -682 -1008 -1353 -1261 -1930 -20 -44 -43 -98 -53 -120 -18 -40
-100 -263 -125 -340 -29 -89 -76 -269 -90 -345 -3 -14 -7 -36 -10 -50 -10 -49
-15 -76 -21 -120 -3 -25 -7 -56 -10 -70 -24 -145 -24 -557 1 -795 2 -22 7 -65
10 -95 8 -77 14 -125 34 -255 5 -38 13 -88 16 -110 3 -22 8 -47 11 -55 3 -8 8
-28 10 -45 12 -75 109 -446 150 -571 84 -254 141 -396 265 -659 77 -164 281
-524 301 -533 5 -2 8 -8 8 -13 0 -22 245 -359 370 -509 549 -658 1262 -1178
2039 -1484 131 -52 323 -122 361 -131 8 -2 47 -13 85 -25 69 -20 291 -78 330
-86 11 -2 31 -6 45 -9 14 -2 49 -10 79 -16 30 -6 64 -12 75 -14 12 -1 48 -7
81 -14 33 -6 78 -13 100 -16 22 -3 56 -7 75 -10 19 -2 64 -7 100 -11 36 -4 79
-8 95 -10 219 -23 792 -22 914 1 9 1 54 6 101 10 47 4 87 9 90 10 3 2 32 6 65
9 33 4 67 9 75 11 8 2 33 6 55 10 104 15 316 59 414 86 41 12 85 23 98 25 29
5 409 130 438 143 11 6 52 22 90 37 207 80 496 222 709 351 49 29 93 53 98 53
4 0 8 5 8 10 0 6 4 10 9 10 11 0 189 116 209 137 7 7 23 18 35 25 19 10 79 55
182 135 17 13 35 27 40 31 163 125 461 407 629 596 412 462 746 1009 968 1586
35 92 113 317 124 360 2 8 17 62 34 120 16 58 32 114 34 125 2 11 13 58 24
105 12 47 23 102 26 122 3 21 10 57 15 80 5 24 12 61 15 83 4 23 8 52 11 65 5
27 13 79 19 138 3 20 7 60 11 87 41 346 41 770 -1 1000 -30 167 -32 179 -51
250 -8 33 -16 65 -17 70 -13 59 -98 323 -116 360 -5 11 -20 50 -34 86 -13 36
-35 91 -50 122 -14 32 -26 60 -26 64 0 6 -192 391 -220 441 -8 15 -27 47 -41
72 -15 25 -36 61 -46 80 -38 66 -135 224 -174 282 -22 31 -39 60 -39 63 0 3
-5 11 -10 18 -6 7 -65 91 -132 187 -139 201 -325 448 -477 635 -103 126 -329
395 -340 405 -3 3 -42 45 -86 95 -73 82 -104 116 -174 194 -230 253 -630 654
-1055 1056 -27 25 -119 109 -285 259 -18 17 -41 38 -50 47 -9 9 -74 67 -146
129 -71 62 -159 139 -195 170 -80 70 -181 156 -280 239 -41 34 -84 70 -95 79
-155 129 -527 427 -665 532 -40 30 -77 60 -84 65 -21 19 -193 145 -197 144 -2
0 -29 -19 -59 -42z"/>
</g>
</svg>
