<svg xmlns="http://www.w3.org/2000/svg" xmlns:xlink="http://www.w3.org/1999/xlink" width="100%" height="100%" viewBox="0 0 101.129 76.19">
  <defs>
    <linearGradient id="linear-gradient" x1="0.217" y1="0.215" x2="0.844" y2="0.861" gradientUnits="objectBoundingBox">
      <stop offset="0" stop-color="#34e4ea"/>
      <stop offset="1" stop-color="#00ade6"/>
    </linearGradient>
    <filter id="ic_switch_video_24px" x="0" y="0" width="101.129" height="76.19" filterUnits="userSpaceOnUse">
      <feOffset dy="3" input="SourceAlpha"/>
      <feGaussianBlur stdDeviation="3" result="blur"/>
      <feFlood flood-opacity="0.161"/>
      <feComposite operator="in" in2="blur"/>
      <feComposite in="SourceGraphic"/>
    </filter>
  </defs>
  <g transform="matrix(1, 0, 0, 1, 0, 0)" filter="url(#ic_switch_video_24px)">
    <path id="ic_switch_video_24px-2" data-name="ic_switch_video_24px" d="M68.5,23.7V9.156A4.169,4.169,0,0,0,64.347,5H6.156A4.169,4.169,0,0,0,2,9.156V59.034A4.169,4.169,0,0,0,6.156,63.19h58.19A4.169,4.169,0,0,0,68.5,59.034V44.486L85.129,61.112V7.078ZM47.721,48.643V38.252H22.782V48.643L8.235,34.1,22.782,19.548V29.939H47.721V19.548L62.269,34.1Z" transform="translate(7 1)" fill="url(#linear-gradient)"/>
  </g>
</svg>
